<?xml version="1.0" encoding="UTF-8" standalone="no"?>
<!-- Created with Inkscape (http://www.inkscape.org/) -->

<svg
   width="16"
   height="16"
   viewBox="0 0 4.2333333 4.2333333"
   version="1.1"
   id="svg1"
   inkscape:version="1.3 (0e150ed6c4, 2023-07-21)"
   sodipodi:docname="Debug.svg"
   xmlns:inkscape="http://www.inkscape.org/namespaces/inkscape"
   xmlns:sodipodi="http://sodipodi.sourceforge.net/DTD/sodipodi-0.dtd"
   xmlns:xlink="http://www.w3.org/1999/xlink"
   xmlns="http://www.w3.org/2000/svg"
   xmlns:svg="http://www.w3.org/2000/svg">
  <sodipodi:namedview
     id="namedview1"
     pagecolor="#505050"
     bordercolor="#eeeeee"
     borderopacity="1"
     inkscape:showpageshadow="0"
     inkscape:pageopacity="0"
     inkscape:pagecheckerboard="0"
     inkscape:deskcolor="#d1d1d1"
     inkscape:document-units="mm"
     inkscape:zoom="48.015645"
     inkscape:cx="7.2268111"
     inkscape:cy="7.98698"
     inkscape:window-width="2560"
     inkscape:window-height="1369"
     inkscape:window-x="2552"
     inkscape:window-y="-8"
     inkscape:window-maximized="1"
     inkscape:current-layer="layer1" />
  <defs
     id="defs1" />
  <g
     inkscape:label="Layer 1"
     inkscape:groupmode="layer"
     id="layer1">
    <g
       id="g6"
       transform="rotate(90,2.1166667,2.1166667)" />
    <g
       id="g49"
       transform="translate(0.04767259,-0.09342858)" />
    <use
       x="0"
       y="0"
       xlink:href="#g49"
       id="use49"
       transform="rotate(90,2.1166667,2.1166667)" />
    <path
       d="m 1.7638889,0.43666611 a 0.35277778,0.35277778 0 0 1 0.7055555,0 0.35277778,0.35277778 0 0 1 -0.7055555,0 z M 3.7477348,2.407812 A 1.2035014,1.2035014 0 0 1 4.0059681,3.5859134 0.77205418,0.77205418 0 0 1 3.5649958,4.081037 0.75512083,0.75512083 0 0 1 2.9176486,4.0554606 3.0324779,3.0324779 0 0 1 2.38125,3.6982731 v 0.1864431 a 0.26458335,0.26458335 0 0 1 -0.5291667,0 V 3.7042703 A 3.0370638,3.0370638 0 0 1 1.3246806,4.0544022 0.75459167,0.75459167 0 0 1 0.67750976,4.0799787 0.77223058,0.77223058 0 0 1 0.23653755,3.5860897 1.1899195,1.1899195 0 0 1 0.49847508,2.4191008 C 0.4686653,2.39423 0.43956109,2.3684772 0.41151532,2.3409606 A 1.3320889,1.3320889 0 0 1 1.6666666e-8,1.406805 C 1.6666666e-8,0.31548693 0.66128197,0.26027722 0.79375007,0.26027722 c 0.50994023,0 0.94773743,0.50112086 1.32291653,1.01529448 0.375532,-0.51399725 0.8129765,-1.01529448 1.3229168,-1.01529448 0.1326444,0 0.7937499,0.0552097 0.7937499,1.14652778 A 1.3315598,1.3315598 0 0 1 3.8230528,2.3399023 c -0.023813,0.023636 -0.049565,0.045861 -0.075318,0.06791 z M 1.8520833,2.6438203 A 1.7201445,1.7201445 0 0 1 1.3264445,2.7297217 1.2059708,1.2059708 0 0 1 0.98566108,2.6801568 0.68103753,0.68103753 0 0 0 0.74330281,3.4352777 0.24570972,0.24570972 0 0 0 0.88441388,3.5926165 0.22560139,0.22560139 0 0 0 1.0784416,3.5857347 C 1.5296444,3.3491995 1.8101028,3.0414009 1.8517305,2.8516064 Z m 0,-0.8290278 C 1.8321514,1.7872759 1.8104556,1.7567605 1.786643,1.7232466 1.6051389,1.46713 1.1234208,0.78944391 0.79375007,0.78944391 c -0.16298333,0 -0.26458342,0.23636099 -0.26458342,0.61736109 A 0.80062918,0.80062918 0 0 0 0.78210833,1.9638411 0.75494446,0.75494446 0 0 0 1.3193889,2.200555 0.9348611,0.9348611 0 0 0 1.8520833,2.0594439 Z m 1.6841611,1.389768 A 0.6655153,0.6655153 0 0 0 3.2642528,2.6810384 l -0.003,-0.00265 A 1.2767028,1.2767028 0 0 1 2.9068889,2.7313092 1.7137944,1.7137944 0 0 1 2.38125,2.6452314 c 0,0 0,0.1843264 0,0.1959681 0.030868,0.1885597 0.3199695,0.5051778 0.7815792,0.7471833 a 0.225425,0.225425 0 0 0 0.1950861,0.00688 0.24570972,0.24570972 0 0 0 0.1411112,-0.157339 0.76711531,0.76711531 0 0 0 0.037218,-0.2342444 z M 3.7041667,1.406805 C 3.687939,0.06624945 2.7458458,1.2794522 2.4475722,1.7220119 c -0.024342,0.03422 -0.046566,0.065441 -0.066852,0.09331 V 2.0594437 A 0.93203888,0.93203888 0 0 0 2.9134153,2.200555 0.75106389,0.75106389 0 0 0 3.451225,1.9629592 0.80080558,0.80080558 0 0 0 3.7041667,1.406805 Z"
       id="path1"
       style="stroke-width:5.64443;fill:#4cb161;fill-opacity:1" />
  </g>
</svg>
