<?xml version="1.0" encoding="UTF-8" standalone="no"?>
<!-- Created with Inkscape (http://www.inkscape.org/) -->

<svg
   width="128"
   height="128"
   viewBox="0 0 33.866666 33.866666"
   version="1.1"
   id="svg1"
   inkscape:version="1.3 (0e150ed6c4, 2023-07-21)"
   sodipodi:docname="Icon.svg"
   xmlns:inkscape="http://www.inkscape.org/namespaces/inkscape"
   xmlns:sodipodi="http://sodipodi.sourceforge.net/DTD/sodipodi-0.dtd"
   xmlns="http://www.w3.org/2000/svg"
   xmlns:svg="http://www.w3.org/2000/svg">
  <sodipodi:namedview
     id="namedview1"
     pagecolor="#505050"
     bordercolor="#eeeeee"
     borderopacity="1"
     inkscape:showpageshadow="0"
     inkscape:pageopacity="0"
     inkscape:pagecheckerboard="0"
     inkscape:deskcolor="#d1d1d1"
     inkscape:document-units="mm"
     inkscape:zoom="6.0019557"
     inkscape:cx="56.648202"
     inkscape:cy="57.397958"
     inkscape:window-width="2560"
     inkscape:window-height="1369"
     inkscape:window-x="-8"
     inkscape:window-y="-8"
     inkscape:window-maximized="1"
     inkscape:current-layer="layer1" />
  <defs
     id="defs1" />
  <g
     inkscape:label="Layer 1"
     inkscape:groupmode="layer"
     id="layer1">
    <g
       id="text1"
       style="font-size:15.875px;line-height:0.8;font-family:Bebas;-inkscape-font-specification:Bebas;text-align:center;letter-spacing:0px;text-anchor:middle;fill:#00ff02;stroke:#4fa533;stroke-width:0.529167;stroke-linejoin:round;stroke-miterlimit:15;paint-order:stroke markers fill"
       transform="scale(0.99983072,1.0001693)"
       aria-label="BLG&#10;PROTO">
      <path
         d="m 12.038759,10.389967 q 0.619125,0.28575 0.936625,0.841375 0.333375,0.555625 0.333375,1.349375 v 0.904875 q 0,1.2065 -0.714375,1.93675 -0.714375,0.714375 -1.920875,0.714375 H 7.8636344 V 5.0242168 h 2.6669996 q 1.2065,0 1.920875,0.73025 0.714375,0.714375 0.714375,1.920875 v 0.587375 q 0,1.49225 -1.127125,2.1272502 z M 9.5463844,6.6117168 v 3.01625 h 0.7461246 q 0.60325,0 0.889,-0.28575 0.301625,-0.301625 0.301625,-0.904875 v -0.79375 q 0,-0.492125 -0.269875,-0.762 -0.269875,-0.269875 -0.762,-0.269875 z m 2.0796246,5.7943752 q 0,-0.60325 -0.301625,-0.889 -0.28575,-0.301625 -0.889,-0.301625 H 9.5463844 v 3.33375 h 1.0477496 q 0.492125,0 0.762,-0.269875 0.269875,-0.269875 0.269875,-0.762 z m 3.206737,-7.3818752 h 1.68275 v 9.5250002 h 3.000375 v 1.5875 h -4.683125 z m 9.556764,3.46075 v -0.936625 q 0,-0.523875 -0.269875,-0.809625 -0.269875,-0.28575 -0.746125,-0.28575 -0.47625,0 -0.746125,0.28575 -0.269875,0.28575 -0.269875,0.809625 v 6.0642502 q 0,0.523875 0.269875,0.809625 0.269875,0.28575 0.746125,0.28575 0.47625,0 0.746125,-0.28575 0.269875,-0.28575 0.269875,-0.809625 v -1.9685 h -1.016 v -1.5875 h 2.69875 v 3.556 q 0,1.2065 -0.746125,1.952625 -0.746125,0.73025 -1.952625,0.73025 -1.2065,0 -1.952625,-0.73025 Q 20.67476,14.819092 20.67476,13.612592 V 7.5483418 q 0,-1.2065 0.746125,-1.93675 0.746125,-0.746125 1.952625,-0.746125 1.2065,0 1.952625,0.746125 0.746125,0.73025 0.746125,1.93675 v 0.936625 z"
         id="path1" />
      <path
         style="stroke-linecap:square"
         d="M 0.97389934,17.724217 H 3.6091493 q 1.2065,0 1.920875,0.73025 0.714375,0.714375 0.714375,1.920875 v 1.30175 q 0,1.2065 -0.714375,1.93675 -0.714375,0.714375 -1.920875,0.714375 h -0.9525 v 4.5085 H 0.97389934 Z m 2.55587496,5.0165 q 0.492125,0 0.762,-0.269875 0.269875,-0.269875 0.269875,-0.762 v -1.36525 q 0,-0.492125 -0.269875,-0.762 -0.269875,-0.269875 -0.762,-0.269875 h -0.873125 v 3.429 z m 7.9057427,6.096 -1.222375,-4.587875 H 9.3400171 v 4.587875 h -1.68275 v -11.1125 h 2.6352499 q 1.2065,0 1.920875,0.73025 0.714375,0.714375 0.714375,1.920875 v 1.222375 q 0,0.762 -0.301625,1.349375 -0.301625,0.587375 -0.85725,0.92075 l 1.412875,4.968875 z M 9.3400171,22.661342 h 0.8731249 q 0.492125,0 0.762,-0.269875 0.269875,-0.269875 0.269875,-0.762 v -1.285875 q 0,-0.492125 -0.269875,-0.762 -0.269875,-0.269875 -0.762,-0.269875 H 9.3400171 Z m 7.7787419,6.334125 q -1.2065,0 -1.952625,-0.73025 -0.746125,-0.746125 -0.746125,-1.952625 v -6.06425 q 0,-1.2065 0.746125,-1.93675 0.746125,-0.746125 1.952625,-0.746125 1.2065,0 1.952625,0.746125 0.746125,0.73025 0.746125,1.93675 v 6.06425 q 0,1.2065 -0.746125,1.952625 -0.746125,0.73025 -1.952625,0.73025 z m 0,-1.5875 q 0.47625,0 0.746125,-0.28575 0.269875,-0.28575 0.269875,-0.809625 v -6.06425 q 0,-0.523875 -0.269875,-0.809625 -0.269875,-0.28575 -0.746125,-0.28575 -0.47625,0 -0.746125,0.28575 -0.269875,0.28575 -0.269875,0.809625 v 6.06425 q 0,0.523875 0.269875,0.809625 0.269875,0.28575 0.746125,0.28575 z m 3.857621,-9.68375 h 5.36575 v 1.5875 h -1.8415 v 9.525 h -1.68275 v -9.525 h -1.8415 z m 9.22337,11.27125 q -1.2065,0 -1.952625,-0.73025 Q 27.501,27.519092 27.501,26.312592 v -6.06425 q 0,-1.2065 0.746125,-1.93675 0.746125,-0.746125 1.952625,-0.746125 1.2065,0 1.952625,0.746125 0.746125,0.73025 0.746125,1.93675 v 6.06425 q 0,1.2065 -0.746125,1.952625 -0.746125,0.73025 -1.952625,0.73025 z m 0,-1.5875 q 0.47625,0 0.746125,-0.28575 0.269875,-0.28575 0.269875,-0.809625 v -6.06425 q 0,-0.523875 -0.269875,-0.809625 -0.269875,-0.28575 -0.746125,-0.28575 -0.47625,0 -0.746125,0.28575 -0.269875,0.28575 -0.269875,0.809625 v 6.06425 q 0,0.523875 0.269875,0.809625 0.269875,0.28575 0.746125,0.28575 z"
         id="path2" />
    </g>
  </g>
</svg>
