<?xml version="1.0" encoding="UTF-8" standalone="no"?>
<!-- Created with Inkscape (http://www.inkscape.org/) -->

<svg
   width="16"
   height="16"
   viewBox="0 0 4.2333333 4.2333333"
   version="1.1"
   id="svg1"
   inkscape:version="1.3 (0e150ed6c4, 2023-07-21)"
   sodipodi:docname="StateMachine_Transition_Guard.svg"
   xmlns:inkscape="http://www.inkscape.org/namespaces/inkscape"
   xmlns:sodipodi="http://sodipodi.sourceforge.net/DTD/sodipodi-0.dtd"
   xmlns:xlink="http://www.w3.org/1999/xlink"
   xmlns="http://www.w3.org/2000/svg"
   xmlns:svg="http://www.w3.org/2000/svg">
  <sodipodi:namedview
     id="namedview1"
     pagecolor="#505050"
     bordercolor="#eeeeee"
     borderopacity="1"
     inkscape:showpageshadow="0"
     inkscape:pageopacity="0"
     inkscape:pagecheckerboard="0"
     inkscape:deskcolor="#d1d1d1"
     inkscape:document-units="mm"
     inkscape:zoom="48.015645"
     inkscape:cx="7.1018518"
     inkscape:cy="7.8620207"
     inkscape:window-width="2560"
     inkscape:window-height="1369"
     inkscape:window-x="2552"
     inkscape:window-y="-8"
     inkscape:window-maximized="1"
     inkscape:current-layer="layer1" />
  <defs
     id="defs1" />
  <g
     inkscape:label="Layer 1"
     inkscape:groupmode="layer"
     id="layer1">
    <g
       id="g6"
       transform="rotate(90,2.1166667,2.1166667)" />
    <g
       id="g49"
       transform="translate(0.04767259,-0.09342858)" />
    <use
       x="0"
       y="0"
       xlink:href="#g49"
       id="use49"
       transform="rotate(90,2.1166667,2.1166667)" />
    <g
       id="g13"
       transform="translate(0,-0.0396634)">
      <path
         id="path12"
         style="fill:none;fill-opacity:1;stroke:#4cb161;stroke-width:0.264583;stroke-linecap:round;stroke-linejoin:miter;stroke-miterlimit:15;stroke-dasharray:none;stroke-opacity:1"
         d="m 0.41065896,0.69400605 c 0,0 0.55913464,0.32932085 0.85300384,0.27535943 0.3583425,-0.0658003 0.8530039,-0.68340034 0.8530039,-0.68340034 0,0 0.4946613,0.61759999 0.8530038,0.68340034 0.2938692,0.0539615 0.8530039,-0.27535943 0.8530039,-0.27535943 0,0 -0.4344247,3.41201545 -1.7060077,3.41201545 -1.2715831,0 -1.70600774,-3.41201545 -1.70600774,-3.41201545 z"
         sodipodi:nodetypes="cacaczc" />
      <path
         id="path13"
         style="fill:#4cb161;fill-opacity:1;stroke:none;stroke-width:0.264583;stroke-linecap:round;stroke-linejoin:miter;stroke-miterlimit:15;stroke-dasharray:none;stroke-opacity:1"
         sodipodi:type="inkscape:offset"
         inkscape:radius="-0.49882278"
         inkscape:original="M 2.1171875 0.28515625 C 2.1171875 0.28515625 1.6220144 0.9029497 1.2636719 0.96875 C 0.96980267 1.0227114 0.41015625 0.69335938 0.41015625 0.69335938 C 0.41015625 0.69335938 0.8456044 4.1054688 2.1171875 4.1054688 C 3.3887705 4.1054688 3.8222656 0.69335938 3.8222656 0.69335938 C 3.8222656 0.69335938 3.2626192 1.0227115 2.96875 0.96875 C 2.6104075 0.90294965 2.1171875 0.28515625 2.1171875 0.28515625 z "
         d="M 2.1171875,0.99414063 C 1.9329688,1.1741781 1.7377951,1.3884214 1.3535156,1.4589844 1.2254334,1.4825033 1.1757892,1.4208676 1.0761719,1.4082031 1.1339745,1.716961 1.1331991,1.8344185 1.2636719,2.25 1.389129,2.6496055 1.5526433,3.0386095 1.7246094,3.2890625 c 0.171966,0.250453 0.2977689,0.3183594 0.3925781,0.3183594 0.094809,0 0.2188405,-0.066009 0.390625,-0.3164063 C 2.679597,3.0406183 2.8454789,2.6495923 2.9707031,2.25 3.1009031,1.83453 3.0986225,1.716937 3.15625,1.4082031 3.0566326,1.4208676 3.0069885,1.4825034 2.8789063,1.4589844 2.494527,1.3884031 2.3010197,1.1743079 2.1171875,0.99414063 Z" />
    </g>
  </g>
</svg>
