<?xml version="1.0" encoding="UTF-8" standalone="no"?>
<!-- Created with Inkscape (http://www.inkscape.org/) -->

<svg
   width="16"
   height="16"
   viewBox="0 0 4.2333333 4.2333333"
   version="1.1"
   id="svg1"
   inkscape:version="1.3 (0e150ed6c4, 2023-07-21)"
   sodipodi:docname="Audio.svg"
   xmlns:inkscape="http://www.inkscape.org/namespaces/inkscape"
   xmlns:sodipodi="http://sodipodi.sourceforge.net/DTD/sodipodi-0.dtd"
   xmlns:xlink="http://www.w3.org/1999/xlink"
   xmlns="http://www.w3.org/2000/svg"
   xmlns:svg="http://www.w3.org/2000/svg">
  <sodipodi:namedview
     id="namedview1"
     pagecolor="#505050"
     bordercolor="#eeeeee"
     borderopacity="1"
     inkscape:showpageshadow="0"
     inkscape:pageopacity="0"
     inkscape:pagecheckerboard="0"
     inkscape:deskcolor="#d1d1d1"
     inkscape:document-units="mm"
     inkscape:zoom="67.904377"
     inkscape:cx="7.8198199"
     inkscape:cy="8.2542544"
     inkscape:window-width="2560"
     inkscape:window-height="1369"
     inkscape:window-x="2552"
     inkscape:window-y="-8"
     inkscape:window-maximized="1"
     inkscape:current-layer="layer1" />
  <defs
     id="defs1" />
  <g
     inkscape:label="Layer 1"
     inkscape:groupmode="layer"
     id="layer1">
    <g
       id="g6"
       transform="rotate(90,2.1166667,2.1166667)" />
    <g
       id="g49"
       transform="translate(0.04767259,-0.09342858)" />
    <use
       x="0"
       y="0"
       xlink:href="#g49"
       id="use49"
       transform="rotate(90,2.1166667,2.1166667)" />
    <path
       d="m 3.1557078,1.557183 v 1.1189674 c 0,0.1323574 -0.1074204,0.2397786 -0.2397788,0.2397786 -0.1323575,0 -0.2397787,-0.1074203 -0.2397787,-0.2397786 V 1.557183 c 0,-0.1323574 0.1074203,-0.2397787 0.2397787,-0.2397787 0.1323574,0 0.2397788,0.1074203 0.2397788,0.2397787 z M 2.1166667,0.19843696 c -0.1323575,0 -0.2397787,0.10742033 -0.2397787,0.23977863 V 3.7951178 c 0,0.1323574 0.1074203,0.2397786 0.2397787,0.2397786 0.1323574,0 0.2397786,-0.1074203 0.2397786,-0.2397786 V 0.43821559 c 0,-0.13235743 -0.1074203,-0.23977863 -0.2397786,-0.23977863 z m 1.5985247,0.63940991 c -0.1323574,0 -0.2397787,0.10742033 -0.2397787,0.23977883 v 2.0780821 c 0,0.1323574 0.1074203,0.2397788 0.2397787,0.2397788 0.1323575,0 0.2397787,-0.1074203 0.2397787,-0.2397788 V 1.0776257 c 0,-0.13235749 -0.1074203,-0.23977883 -0.2397787,-0.23977883 z M 1.3174042,0.99769933 c -0.1323574,0 -0.2397787,0.10742037 -0.2397787,0.23977877 v 1.7583772 c 0,0.1323575 0.1074203,0.2397788 0.2397787,0.2397788 0.1323575,0 0.2397788,-0.1074203 0.2397788,-0.2397788 V 1.2374781 c 0,-0.1323574 -0.1074203,-0.23977877 -0.2397788,-0.23977877 z M 0.51814193,1.6371094 c -0.13235742,0 -0.23977871,0.1074203 -0.23977871,0.2397786 v 0.4795574 c 0,0.1323574 0.10742033,0.2397787 0.23977871,0.2397787 0.13235742,0 0.23977862,-0.1074203 0.23977862,-0.2397787 V 1.876888 c 0,-0.1323574 -0.10742033,-0.2397786 -0.23977862,-0.2397786 z"
       id="path1-9"
       style="fill:#4cb161;fill-opacity:1;stroke-width:5.64443" />
  </g>
</svg>
